<?xml version="1.0" encoding="UTF-8"?>
<svg version="1.1" xmlns="http://www.w3.org/2000/svg" width="128" height="128">
<path d="M0 0 C1.27230469 -0.03738281 2.54460937 -0.07476562 3.85546875 -0.11328125 C11.57733193 0.71760038 16.83025321 4.78351412 22.4375 9.875 C23.65668359 10.95168161 24.87809899 12.02584052 26.1015625 13.09765625 C26.71676758 13.63664551 27.33197266 14.17563477 27.96582031 14.73095703 C30.83828273 17.19100615 33.81934448 19.5020975 36.8125 21.8125 C41.81077918 25.69690126 46.72648008 29.66491485 51.5625 33.75 C52.15933594 34.24628906 52.75617188 34.74257813 53.37109375 35.25390625 C57.59707195 38.85928626 59.60320157 41.09393661 60.125 46.625 C59.85276037 49.83742762 59.5086068 51.28523993 58.1875 54.0625 C57.506875 55.67125 57.506875 55.67125 56.8125 57.3125 C57.4725 58.3025 58.1325 59.2925 58.8125 60.3125 C59.52038493 65.77778806 58.53863153 70.13410542 56.8125 75.3125 C57.8025 76.7975 57.8025 76.7975 58.8125 78.3125 C59.21875 80.328125 59.21875 80.328125 59.3125 82.5625 C59.3640625 83.28953125 59.415625 84.0165625 59.46875 84.765625 C57.9898338 90.50522836 53.43848457 94.15121202 48.51171875 97.09375 C46.84821585 98.01291322 45.17716474 98.91850818 43.5 99.8125 C41.63507177 100.83946272 39.77186689 101.86955954 37.91015625 102.90234375 C36.9267627 103.44616699 35.94336914 103.98999023 34.93017578 104.55029297 C28.27556354 108.31168617 21.7719528 112.33419731 15.25268555 116.32421875 C1.37328731 124.74479759 1.37328731 124.74479759 -7.25 124.6875 C-8.41660156 124.69523437 -9.58320312 124.70296875 -10.78515625 124.7109375 C-17.97023404 123.86951622 -22.67456383 119.510085 -28 115 C-29.50512354 113.74338801 -31.01033449 112.48688072 -32.515625 111.23046875 C-33.66901367 110.26246338 -33.66901367 110.26246338 -34.84570312 109.27490234 C-38.63181171 106.10218124 -42.44012903 102.9566095 -46.25 99.8125 C-46.92716064 99.25006592 -47.60432129 98.68763184 -48.30200195 98.1081543 C-52.28608591 94.81465143 -56.34149348 91.66444634 -60.52124023 88.62231445 C-62.93914981 86.72164267 -64.11065548 85.20651964 -65.1875 82.3125 C-65.77613159 77.03411505 -65.20573656 73.21393165 -63.1875 68.3125 C-63.8475 67.3225 -64.5075 66.3325 -65.1875 65.3125 C-65.453125 62.97265625 -65.453125 62.97265625 -65.4375 60.375 C-65.44265625 59.52035156 -65.4478125 58.66570313 -65.453125 57.78515625 C-65.1875 55.3125 -65.1875 55.3125 -64.0859375 53.171875 C-63.78945313 52.55828125 -63.49296875 51.9446875 -63.1875 51.3125 C-64.16960371 49.3036515 -65.17190599 47.30462671 -66.1875 45.3125 C-66.75877125 40.74232998 -66.42163672 37.7514838 -63.74291992 33.95019531 C-60.22249717 30.2435565 -55.52353876 27.95354766 -51.125 25.4375 C-48.88150731 24.12500531 -46.63801785 22.81250511 -44.39453125 21.5 C-43.2105953 20.81355007 -42.02651097 20.127356 -40.84228516 19.44140625 C-37.08888306 17.26203593 -33.36115347 15.04091676 -29.63671875 12.8125 C-28.40051133 12.07399016 -27.16426503 11.33554539 -25.92797852 10.59716797 C-24.12755521 9.52181322 -22.327225 8.44630897 -20.52755737 7.36968994 C-18.8560642 6.37112037 -17.18199349 5.37686915 -15.5078125 4.3828125 C-14.07332764 3.52840576 -14.07332764 3.52840576 -12.60986328 2.65673828 C-8.33474173 0.28435174 -4.83645187 0.09216909 0 0 Z " fill="#FDFDFD" transform="translate(67.1875,1.6875)"/>
<path d="M0 0 C1.27230469 -0.03738281 2.54460937 -0.07476562 3.85546875 -0.11328125 C11.57733193 0.71760038 16.83025321 4.78351412 22.4375 9.875 C23.65668359 10.95168161 24.87809899 12.02584052 26.1015625 13.09765625 C26.71676758 13.63664551 27.33197266 14.17563477 27.96582031 14.73095703 C30.83828273 17.19100615 33.81934448 19.5020975 36.8125 21.8125 C41.81077918 25.69690126 46.72648008 29.66491485 51.5625 33.75 C52.15933594 34.24628906 52.75617188 34.74257813 53.37109375 35.25390625 C57.59707195 38.85928626 59.60320157 41.09393661 60.125 46.625 C59.85276037 49.83742762 59.5086068 51.28523993 58.1875 54.0625 C57.506875 55.67125 57.506875 55.67125 56.8125 57.3125 C57.4725 58.3025 58.1325 59.2925 58.8125 60.3125 C59.52038493 65.77778806 58.53863153 70.13410542 56.8125 75.3125 C57.8025 76.7975 57.8025 76.7975 58.8125 78.3125 C59.21875 80.328125 59.21875 80.328125 59.3125 82.5625 C59.3640625 83.28953125 59.415625 84.0165625 59.46875 84.765625 C57.9898338 90.50522836 53.43848457 94.15121202 48.51171875 97.09375 C46.84821585 98.01291322 45.17716474 98.91850818 43.5 99.8125 C41.63507177 100.83946272 39.77186689 101.86955954 37.91015625 102.90234375 C36.9267627 103.44616699 35.94336914 103.98999023 34.93017578 104.55029297 C28.27556354 108.31168617 21.7719528 112.33419731 15.25268555 116.32421875 C1.37328731 124.74479759 1.37328731 124.74479759 -7.25 124.6875 C-8.41660156 124.69523437 -9.58320312 124.70296875 -10.78515625 124.7109375 C-17.97023404 123.86951622 -22.67456383 119.510085 -28 115 C-29.50512354 113.74338801 -31.01033449 112.48688072 -32.515625 111.23046875 C-33.66901367 110.26246338 -33.66901367 110.26246338 -34.84570312 109.27490234 C-38.63181171 106.10218124 -42.44012903 102.9566095 -46.25 99.8125 C-46.92716064 99.25006592 -47.60432129 98.68763184 -48.30200195 98.1081543 C-52.28608591 94.81465143 -56.34149348 91.66444634 -60.52124023 88.62231445 C-62.93914981 86.72164267 -64.11065548 85.20651964 -65.1875 82.3125 C-65.77613159 77.03411505 -65.20573656 73.21393165 -63.1875 68.3125 C-63.8475 67.3225 -64.5075 66.3325 -65.1875 65.3125 C-65.453125 62.97265625 -65.453125 62.97265625 -65.4375 60.375 C-65.44265625 59.52035156 -65.4478125 58.66570313 -65.453125 57.78515625 C-65.1875 55.3125 -65.1875 55.3125 -64.0859375 53.171875 C-63.78945313 52.55828125 -63.49296875 51.9446875 -63.1875 51.3125 C-64.16960371 49.3036515 -65.17190599 47.30462671 -66.1875 45.3125 C-66.75877125 40.74232998 -66.42163672 37.7514838 -63.74291992 33.95019531 C-60.22249717 30.2435565 -55.52353876 27.95354766 -51.125 25.4375 C-48.88150731 24.12500531 -46.63801785 22.81250511 -44.39453125 21.5 C-43.2105953 20.81355007 -42.02651097 20.127356 -40.84228516 19.44140625 C-37.08888306 17.26203593 -33.36115347 15.04091676 -29.63671875 12.8125 C-28.40051133 12.07399016 -27.16426503 11.33554539 -25.92797852 10.59716797 C-24.12755521 9.52181322 -22.327225 8.44630897 -20.52755737 7.36968994 C-18.8560642 6.37112037 -17.18199349 5.37686915 -15.5078125 4.3828125 C-14.07332764 3.52840576 -14.07332764 3.52840576 -12.60986328 2.65673828 C-8.33474173 0.28435174 -4.83645187 0.09216909 0 0 Z M-21.5625 10.5625 C-22.45646484 11.07683594 -23.35042969 11.59117188 -24.27148438 12.12109375 C-31.7783031 16.45928274 -39.24153195 20.8708163 -46.6875 25.3125 C-47.75532715 25.94704102 -48.8231543 26.58158203 -49.92333984 27.23535156 C-50.9283252 27.83831055 -51.93331055 28.44126953 -52.96875 29.0625 C-53.85626953 29.59359375 -54.74378906 30.1246875 -55.65820312 30.671875 C-60.67189808 33.7746786 -60.67189808 33.7746786 -64.1875 38.3125 C-64.85916707 41.05553896 -64.85916707 41.05553896 -64.1875 44.3125 C-60.12819792 50.06457212 -54.78133682 54.58363755 -49.3125 58.9375 C-47.81747767 60.14685032 -46.32269324 61.35649479 -44.828125 62.56640625 C-44.06564453 63.18016113 -43.30316406 63.79391602 -42.51757812 64.42626953 C-40.17999172 66.31857805 -37.86074416 68.23112821 -35.546875 70.15234375 C-34.41934814 71.08796143 -34.41934814 71.08796143 -33.26904297 72.04248047 C-31.84008268 73.22922266 -30.41196726 74.41698321 -28.98486328 75.60595703 C-21.11989149 82.11031375 -15.22759542 86.91791355 -4.60546875 86.765625 C1.90747055 85.90219533 7.2450435 82.59460755 12.8125 79.3125 C13.55532227 78.87824707 14.29814453 78.44399414 15.06347656 77.99658203 C19.24689581 75.53953075 23.4033495 73.04181377 27.54296875 70.51171875 C31.12512382 68.32377949 34.73110969 66.18587373 38.36328125 64.08203125 C39.26546387 63.55504639 40.16764648 63.02806152 41.09716797 62.48510742 C42.81907207 61.48058413 44.54572918 60.48414802 46.27783203 59.49731445 C51.14602168 56.63576394 54.57887835 53.97687091 57.8125 49.3125 C58.56265195 46.26941709 58.56265195 46.26941709 57.8125 43.3125 C55.19179447 39.62564381 52.27926702 36.86928084 48.75 34.0625 C47.77933594 33.28390625 46.80867188 32.5053125 45.80859375 31.703125 C44.81988281 30.91421875 43.83117187 30.1253125 42.8125 29.3125 C40.9769832 27.81517265 39.14360736 26.31521652 37.3125 24.8125 C35.95125 23.70068359 35.95125 23.70068359 34.5625 22.56640625 C32.72404916 21.05960777 30.89072341 19.54653508 29.0625 18.02734375 C16.7651164 6.73627947 16.7651164 6.73627947 1.625 2.0625 C0.51769531 2.03671875 -0.58960938 2.0109375 -1.73046875 1.984375 C-9.07830861 2.68179709 -15.28547737 6.93322223 -21.5625 10.5625 Z " fill="#747A7D" transform="translate(67.1875,1.6875)"/>
<path d="M0 0 C7.15632448 4.31651318 13.30463753 9.58465452 19.5859375 15.046875 C23.94830422 18.8383522 28.44258452 22.44617828 33 26 C33.54640137 26.42619629 34.09280273 26.85239258 34.65576172 27.29150391 C36.43474061 28.67667423 38.21663354 30.05798402 40 31.4375 C40.56468994 31.87529785 41.12937988 32.3130957 41.71118164 32.76416016 C46.37800052 36.35445869 48.82683461 37.2542255 54.75 37.5 C55.96171875 37.5721875 57.1734375 37.644375 58.421875 37.71875 C69.3651341 36.90757313 81.33111945 27.60693404 90.4375 22.125 C91.61538013 21.42078697 92.79352417 20.71701519 93.97192383 20.01367188 C97.31802205 18.01477395 100.65913867 16.0076391 104 14 C105.69248165 12.98660049 107.38516147 11.97353179 109.078125 10.9609375 C112.3887432 8.97944341 115.69593508 6.99240095 119 5 C119.12375 5.598125 119.2475 6.19625 119.375 6.8125 C119.95475985 9.26231348 119.95475985 9.26231348 122 12 C122.40625 14.015625 122.40625 14.015625 122.5 16.25 C122.5515625 16.97703125 122.603125 17.7040625 122.65625 18.453125 C121.1773338 24.19272836 116.62598457 27.83871202 111.69921875 30.78125 C110.03571585 31.70041322 108.36466474 32.60600818 106.6875 33.5 C104.82257177 34.52696272 102.95936689 35.55705954 101.09765625 36.58984375 C100.1142627 37.13366699 99.13086914 37.67749023 98.11767578 38.23779297 C91.46306354 41.99918617 84.9594528 46.02169731 78.44018555 50.01171875 C64.56078731 58.43229759 64.56078731 58.43229759 55.9375 58.375 C54.77089844 58.38273437 53.60429688 58.39046875 52.40234375 58.3984375 C45.21726596 57.55701622 40.51293617 53.197585 35.1875 48.6875 C33.68237646 47.43088801 32.17716551 46.17438072 30.671875 44.91796875 C29.90294922 44.27263184 29.13402344 43.62729492 28.34179688 42.96240234 C24.55568829 39.78968124 20.74737097 36.6441095 16.9375 33.5 C16.26033936 32.93756592 15.58317871 32.37513184 14.88549805 31.7956543 C10.90141409 28.50215143 6.84600652 25.35194634 2.66625977 22.30981445 C0.24835019 20.40914267 -0.92315548 18.89401964 -2 16 C-2.57111346 10.87870389 -2.27334253 6.68876897 0 2 C0 1.34 0 0.68 0 0 Z " fill="#4E5254" transform="translate(4,68)"/>
<path d="M0 0 C3.65316671 1.24976756 4.78065836 1.67098753 7 5 C7.4640625 5.99 7.4640625 5.99 7.9375 7 C8.86969719 9.07028215 8.86969719 9.07028215 10.625 10.3125 C12 12 12 12 12.4375 15.375 C11.9362896 19.5278862 10.76936226 20.97101003 8 24 C8 24.66 8 25.32 8 26 C13.38035253 26.28221632 13.38035253 26.28221632 18.5 25 C22.7127829 23.31488684 26.84516883 23.1231781 31.03515625 24.828125 C35.6967068 27.3934136 35.6967068 27.3934136 37 30 C37.5625 32.6875 37.5625 32.6875 37 36 C32.12646225 41.9748307 26.03598365 45.30403332 18.484375 46.34765625 C14.16009384 46.60012177 10.90059436 46.45576392 7.3125 43.875 C5 41 5 41 5.125 37.6875 C5.41375 36.800625 5.7025 35.91375 6 35 C4.5459375 34.13375 4.5459375 34.13375 3.0625 33.25 C-0.12580062 30.90757505 -0.40168778 30.60502045 -1 27 C-1.556875 27.05800781 -2.11375 27.11601563 -2.6875 27.17578125 C-9.04656995 27.55173978 -13.10954735 26.11696269 -18 22 C-19.56935594 18.86128812 -19.35201103 16.46144178 -19 13 C-15.7229354 9.0143809 -12.60915956 6.40960425 -7.5625 5.125 C-3.89615395 3.96720651 -2.42016115 2.90419338 0 0 Z " fill="#798083" transform="translate(55,23)"/>
<path d="M0 0 C1.24523437 -0.01933594 2.49046875 -0.03867187 3.7734375 -0.05859375 C11.41343754 0.92546305 16.67755339 4.9403401 22.25 10 C23.4653097 11.07273977 24.68281983 12.14299101 25.90234375 13.2109375 C26.51706543 13.74944336 27.13178711 14.28794922 27.76513672 14.84277344 C30.70710018 17.36533911 33.75148484 19.74937504 36.8125 22.125 C42.8307147 26.80152073 48.74983281 31.58149447 54.625 36.4375 C54.295 37.4275 53.965 38.4175 53.625 39.4375 C48.125 34.9375 42.625 30.4375 37.125 25.9375 C35.76375 24.82568359 35.76375 24.82568359 34.375 23.69140625 C32.53654916 22.18460777 30.70322341 20.67153508 28.875 19.15234375 C16.5776164 7.86127947 16.5776164 7.86127947 1.4375 3.1875 C0.33019531 3.16171875 -0.77710938 3.1359375 -1.91796875 3.109375 C-9.64152292 3.84245811 -16.16964891 8.48649587 -22.75 12.3125 C-24.54917853 13.35208298 -26.34865512 14.39115029 -28.1484375 15.4296875 C-29.4492627 16.18137207 -29.4492627 16.18137207 -30.77636719 16.94824219 C-34.62051217 19.15129409 -38.49391483 21.30034903 -42.375 23.4375 C-42.375 22.4475 -42.375 21.4575 -42.375 20.4375 C-40.35143178 18.97631207 -38.40651894 17.751256 -36.2421875 16.53125 C-35.61273224 16.1652771 -34.98327698 15.7993042 -34.33474731 15.42224121 C-32.31238555 14.25010934 -30.28135992 13.09395301 -28.25 11.9375 C-26.90307603 11.15853652 -25.55671441 10.37859979 -24.2109375 9.59765625 C-7.61435577 0.00784985 -7.61435577 0.00784985 0 0 Z " fill="#7A8184" transform="translate(67.375,1.5625)"/>
<path d="M0 0 C0.99 0.33 1.98 0.66 3 1 C2.41210693 1.34667725 1.82421387 1.69335449 1.21850586 2.05053711 C-1.54217112 3.67894618 -4.30231443 5.30825812 -7.0625 6.9375 C-8.06007324 7.52563477 -9.05764648 8.11376953 -10.08544922 8.71972656 C-14.62535294 11.39970833 -19.16013328 14.08549636 -23.66015625 16.83203125 C-24.33876709 17.24525635 -25.01737793 17.65848145 -25.71655273 18.08422852 C-26.95706884 18.84199549 -28.19502214 19.60397966 -29.42993164 20.37084961 C-36.12298313 24.4539336 -42.25326841 24.61973853 -50 24 C-52.37241611 23.24712994 -53.91460928 22.39026048 -56 21 C-55.34 20.67 -54.68 20.34 -54 20 C-53.01 20.33 -52.02 20.66 -51 21 C-48.66824086 21.09528823 -46.33370026 21.12986188 -44 21.125 C-42.7625 21.12757812 -41.525 21.13015625 -40.25 21.1328125 C-35.76638681 20.94958792 -34.03435519 20.05844459 -31 17 C-27.3382018 14.50647889 -23.53316191 12.24161906 -19.75 9.9375 C-18.21279297 8.98133789 -18.21279297 8.98133789 -16.64453125 8.00585938 C-11.4751629 4.8490186 -6.9205387 2.31658388 -1 1 C-0.67 0.67 -0.34 0.34 0 0 Z " fill="#72787B" transform="translate(104,67)"/>
<path d="M0 0 C0.33 1.32 0.66 2.64 1 4 C-6.0547046 9.05908096 -6.0547046 9.05908096 -10 8.8125 C-10.66 8.544375 -11.32 8.27625 -12 8 C-12.33 6.68 -12.66 5.36 -13 4 C-8.36319839 0.11511216 -5.99966724 -1.45937852 0 0 Z " fill="#F5F5F5" transform="translate(82,54)"/>
<path d="M0 0 C2.6885816 0.03861518 3.8545699 0.08610297 6.1875 1.5 C7.125 3.25 7.125 3.25 7 5.3125 C6.125 7.25 6.125 7.25 3.125 9.25 C-0.03909489 9.05224407 -2.17147697 8.72658012 -4.8125 6.9375 C-5.875 5.25 -5.875 5.25 -5.625 3.125 C-4.26909447 -0.26476382 -4.0844364 0.26351203 0 0 Z " fill="#F8F8F8" transform="translate(50.875,34.75)"/>
<path d="M0 0 C0.99 0.33 1.98 0.66 3 1 C0.58706946 2.48557291 -1.8299747 3.96356592 -4.25 5.4375 C-4.93191406 5.85837891 -5.61382812 6.27925781 -6.31640625 6.71289062 C-6.98027344 7.11572266 -7.64414063 7.51855469 -8.328125 7.93359375 C-9.23933105 8.4913147 -9.23933105 8.4913147 -10.16894531 9.06030273 C-15.85987704 11.98088889 -24.09252885 12.24000929 -30.1171875 10.328125 C-31.75 9.5 -31.75 9.5 -34 8 C-33.34 7.67 -32.68 7.34 -32 7 C-31.01 7.33 -30.02 7.66 -29 8 C-17.79603924 9.34508669 -10.32779987 6.69501105 -1 1 C-0.67 0.67 -0.34 0.34 0 0 Z " fill="#63696C" transform="translate(82,80)"/>
<path d="M0 0 C0.33 0 0.66 0 1 0 C1.08636719 0.556875 1.17273438 1.11375 1.26171875 1.6875 C2.3680008 7.69593096 4.46113374 12.04288581 8 17 C4.18220043 16.04555011 3.0435405 15.06001529 0.6875 11.8125 C-1.20712244 8.16840765 -1.41066462 5.10664621 -1 1 C-0.67 0.67 -0.34 0.34 0 0 Z " fill="#676D6F" transform="translate(2,39)"/>
<path d="M0 0 C2.62697064 -0.22137393 5.00893964 -0.28162025 7.625 -0.1875 C8.33140625 -0.17396484 9.0378125 -0.16042969 9.765625 -0.14648438 C11.51074128 -0.1111104 13.25546608 -0.05730221 15 0 C15 0.66 15 1.32 15 2 C6.585 2.495 6.585 2.495 -2 3 C-1.34 2.01 -0.68 1.02 0 0 Z " fill="#82888B" transform="translate(60,2)"/>
<path d="M0 0 C0.33 0.66 0.66 1.32 1 2 C-0.28813342 2.83878455 -1.58063256 3.67086783 -2.875 4.5 C-3.59429687 4.9640625 -4.31359375 5.428125 -5.0546875 5.90625 C-7 7 -7 7 -9 7 C-8 4 -8 4 -6.15234375 2.83203125 C-5.42144531 2.49558594 -4.69054687 2.15914062 -3.9375 1.8125 C-3.20402344 1.46832031 -2.47054687 1.12414063 -1.71484375 0.76953125 C-1.14894531 0.51558594 -0.58304688 0.26164062 0 0 Z " fill="#54595C" transform="translate(123,56)"/>
</svg>
